# xmcd
#
# Track frame offsets:
#	150
#	10637
#	29237
#	43014
#	58932
#	71817
#
# Disc length: 1501 seconds
#
# Revision: 1
# Processed by: cddbd v1.5.1PL0 Copyright (c) Steve Scherf et al.
# Submitted via: audiograbber 1.83.01
#
DISCID=5405db06
DTITLE=Jim Boies, Jim Fitch, Larry Gardner, Toby Loftus, Jim Pond, Leonard Weit
DTITLE=man, Guy Wettstein - Mentor Graphics Country Sampler
DYEAR=2004
DGENRE=Country
TTITLE0=Angie Burn
TTITLE1=This Old Mentor Graphics
TTITLE2=Right String Baby but the Wrong YoYo
TTITLE3=Software Babies
TTITLE4=Cowboy in Bollywood
TTITLE5=Love Song of the Dons
EXTD=
EXTT0=
EXTT1=
EXTT2=
EXTT3=
EXTT4=
EXTT5=
PLAYORDER=
